<?xml version="1.0" encoding="UTF-8"?>
<svg id="_레이어_1" data-name="레이어_1" xmlns="http://www.w3.org/2000/svg" viewBox="0 0 645.24 215.9">
  <defs>
    <style>
      .cls-1 {
        fill: #040000;
      }
    </style>
  </defs>
  <path class="cls-1" d="M71.72,12.46c3.49,1.7,5.24,6.73,5.24,15.11,0,7.18-2.8,15.86-8.38,26.04-.4,1-1.1,2.3-2.09,3.89-5.79,10.77-8.98,17.21-9.58,19.3-.6,2.1.2,4.04,2.39,5.84.2.4.4.6.6.6,2.39,2.2,6.29,7.03,11.67,14.52,5.39,7.48,9.38,13.62,11.97,18.41,1.8,3.39,2.14,6.29,1.05,8.68-1.1,2.39-3.44,3.59-7.03,3.59-4.59,0-8.53-1.24-11.82-3.74-3.29-2.49-7.44-7.53-12.42-15.11l-9.58-14.37-15.26,16.76c-9.98,10.98-16.86,16.46-20.65,16.46-2.99,0-5.24-1.39-6.73-4.19-1.5-2.79-1.45-5.39.15-7.78,1.2-2.19,5.69-8.38,13.47-18.56s12.87-16.76,15.26-19.75c2.59-2.99,6.38-9.13,11.37-18.41,4.99-9.28,7.18-14.22,6.58-14.81-.8-.79-9.78,4.79-26.94,16.76-4.59,3.19-7.53,4.89-8.83,5.09-1.3.2-2.75-.8-4.34-2.99-2.39-2.79-3.59-5.58-3.59-8.38,0-1,1.05-2.64,3.14-4.94,2.09-2.29,4.69-4.79,7.78-7.48,3.09-2.69,6.63-5.43,10.62-8.23,3.99-2.79,7.68-5.13,11.07-7.03,3.39-1.89,9.28-5.34,17.66-10.33,7.98-4.99,13.72-6.63,17.21-4.94ZM119.46,128.43c1.59,0,3.74,2.15,6.43,6.43,2.69,4.29,3.84,7.44,3.44,9.43-.8,4.39-2.39,14.57-4.79,30.53-2.39,15.56-5.09,25.74-8.08,30.53-2.99,4.79-8.18,7.28-15.56,7.48-6.58.4-11.48,1-14.67,1.79-5.99,1.8-10.53,1.69-13.62-.3-3.1-2-6.43-6.79-10.03-14.37-4.59-9.58-7.29-16.96-8.08-22.15-.8-5.19,0-9.67,2.39-13.47,1.59-2.39,3.09-3.89,4.49-4.49,1.39-.6,3.59-.6,6.58,0,1.59.2,2.94.3,4.04.3s2.44-.45,4.04-1.35c1.59-.9,3.34-2.09,5.24-3.59,1.89-1.5,4.34-3.64,7.33-6.43,9.97-8.38,17.16-13.87,21.55-16.46,5.19-2.59,8.28-3.89,9.28-3.89ZM108.68,154.77c-.4-.4-1.4.05-2.99,1.35-1.6,1.3-3.59,3.29-5.99,5.99-2.39,2.69-4.99,5.74-7.78,9.13-3.4,4.59-5.54,8.08-6.43,10.47-.9,2.39-1.05,5.09-.45,8.08s1.35,4.79,2.24,5.39,2.74.6,5.54,0c4.79-1.2,7.98-3.19,9.58-5.99,1.59-2.79,3.09-8.58,4.49-17.36,1.39-11.17,1.99-16.86,1.8-17.06ZM171.68.49c3.29,1.1,5.54,3.34,6.73,6.73,1.39,3.99.3,12.57-3.29,25.74-7.38,26.74-12.67,42.5-15.86,47.29-1.4,2-4.69,9.48-9.88,22.45-3.4,7.98-6.04,13.42-7.93,16.31-1.9,2.89-4.14,4.84-6.73,5.84-5.39,1.79-8.58,1.35-9.58-1.35-1-2.69-.3-9.03,2.1-19,1.8-7.58,4.44-16.86,7.93-27.83,3.49-10.97,7.03-21.45,10.62-31.43,3.59-9.97,7.08-19,10.48-27.09,3.39-8.08,5.99-13.22,7.78-15.41,1.8-2.59,4.34-3.34,7.63-2.24Z"/>
  <path class="cls-1" d="M250.99,56.01c1.69,0,4.94,2.39,9.73,7.18,3.19,3.4,5.13,6.39,5.84,8.98.7,2.6,1.05,8.38,1.05,17.36,0,13.17-1.1,26.44-3.29,39.81-1.4,9.58-2.69,15.86-3.89,18.85-1.2,2.99-3.99,6.58-8.38,10.77-6.19,5.99-12.27,9.93-18.26,11.82-5.99,1.9-11.07,1.55-15.26-1.05-3.79-2.59-5.69-5.09-5.69-7.48s-1.7-6.29-5.09-11.67c-2.8-5.39-5.74-14.81-8.83-28.28-3.1-13.47-4.74-23.99-4.94-31.58,0-7.38,1.89-13.27,5.69-17.66,2.59-2.99,4.44-4.64,5.54-4.94,1.09-.3,3.04.25,5.84,1.65,3.99,2.2,6.28,4.39,6.88,6.58.4,2.39,5.58-.4,15.56-8.38,9.98-7.98,15.81-11.97,17.51-11.97ZM247.25,91.32l-.6-9.28-10.48,8.98-9.88,8.98,1.5,18.26c0,2.6.15,5.84.45,9.73.3,3.89.55,6.99.75,9.28.2,2.3.3,3.84.3,4.64.2,3.59.9,5.39,2.1,5.39,2.39,0,4.79-2.49,7.18-7.48,2.39-4.99,4.39-11.77,5.99-20.35,2.39-13.17,3.29-22.55,2.69-28.13ZM353.95,22.04c4.09,2.1,6.13,6.43,6.13,13.02,0,3.79-2.1,14.37-6.29,31.73-3.99,17.76-5.69,27.04-5.09,27.83.6,1,5.19-.1,13.77-3.29,8.78-2.99,18.55-5.39,29.33-7.18,19.35-3.39,29.63-.7,30.83,8.08.2,2.2-1.35,4.14-4.64,5.84-3.29,1.7-11.52,4.64-24.69,8.83-20.35,6.79-32.82,10.58-37.41,11.37-4.99.8-8.28,3.14-9.88,7.03-1.6,3.89-2.39,11.22-2.39,22,0,6.19-.4,11.37-1.2,15.56-.8,4.19-2,7.38-3.59,9.58-1.6,2.2-3.69,3.69-6.28,4.49-3.99.8-7.98-.9-11.97-5.09-2.99-2.99-4.74-6.08-5.24-9.28-.5-3.19-.75-12.07-.75-26.64,0-10.57.25-18.3.75-23.2.5-4.89,1.45-10.03,2.84-15.41,1.39-5.39,4.29-14.86,8.68-28.43,7.78-24.94,12.97-39.21,15.56-42.8,3.59-4.79,7.43-6.14,11.52-4.04Z"/>
  <path class="cls-1" d="M595.32,14.4c7.38,1.2,7.08,12.57-.9,34.12-2,5.59-3.54,10.18-4.64,13.77-1.1,3.59-1.45,5.39-1.05,5.39.6,0,2.79-1.2,6.58-3.59,3.39-2.19,9.03-3.79,16.91-4.79,7.88-1,14.71-1,20.5,0,2.59.6,5.09,1.7,7.48,3.29,2.39,1.6,3.94,3.29,4.64,5.09.7,1.8.45,3.4-.75,4.79-1,1-8.38,3.19-22.15,6.58-13.77,3.4-24.44,5.59-32.02,6.58-4.99.8-7.88,1.8-8.68,2.99-.2.6-2.1,7.29-5.69,20.05-3.4,12.37-5.99,19.15-7.78,20.35-3.19,2-6.24,2.5-9.13,1.5-2.89-1-5.14-3.29-6.73-6.88-1.4-3.59-1.85-7.93-1.35-13.02.5-5.09,2.34-14.71,5.54-28.88l1.5-5.99-6.88,6.29c-4.39,3.79-13.17,9.98-26.34,18.56l-20.05,12.57h-18.56c-15.76-.2-27.09-2.64-33.97-7.33-6.88-4.69-10.23-12.32-10.03-22.9.2-6.98-.4-10.87-1.79-11.67-1.6-1-2.39-3.39-2.39-7.18,0-6.58,10.07-13.07,30.23-19.45,8.58-2.79,15.46-5.58,20.65-8.38,8.98-4.39,16.26-4.98,21.85-1.8,3.99,2.39,4.89,5.99,2.69,10.77-1.8,3.59-10.38,9.08-25.74,16.46-16.56,7.98-25.24,13.47-26.04,16.46-.4,2,1.69,4.19,6.29,6.58l3.59,1.8c8.58,3.79,16.11,5.14,22.6,4.04,6.48-1.09,16.61-5.64,30.38-13.62,16.36-9.38,25.39-14.07,27.09-14.07s5.93-3.99,12.72-11.97c6.78-7.98,12.97-16.26,18.56-24.84,5.39-8.18,9.67-12.07,12.87-11.67ZM548.49,145.34c4.29-.5,8.43,1.05,12.42,4.64,5.78,5.59,6.48,13.47,2.09,23.64-3.59,8.58-11.18,15.61-22.75,21.1-11.57,5.49-21.45,6.63-29.63,3.44-3.79-1.4-6.24-2.75-7.33-4.04-1.1-1.3-1.75-3.94-1.95-7.93-.4-2.59-.45-4.69-.15-6.28.3-1.59,1-3.09,2.1-4.49,1.09-1.39,2.74-3.19,4.94-5.39,4.39-4.19,11.67-9.68,21.85-16.46,7.98-4.99,14.11-7.73,18.41-8.23ZM550.13,161.36c-1.4-.2-3.1,1-5.09,3.59-2.2,2.8-7.48,6.39-15.86,10.77-6.99,3.99-10.68,6.49-11.07,7.48-.4,1,1.89.8,6.88-.6.6,0,1.2-.1,1.8-.3,4.79-1.39,9.38-3.69,13.77-6.88,4.39-3.19,7.48-6.48,9.28-9.88,1.59-2.79,1.69-4.19.3-4.19Z"/>
</svg>