<?xml version="1.0" encoding="UTF-8"?>
<svg width="256px" height="256px" viewBox="0 0 256 256" version="1.1" xmlns="http://www.w3.org/2000/svg" xmlns:xlink="http://www.w3.org/1999/xlink" preserveAspectRatio="xMidYMid">
    <g>
        <path d="M128,0 C57.307,0 0,57.307 0,128 C0,198.693 57.307,256 128,256 C198.693,256 256,198.693 256,128 C256,57.307 198.693,0 128,0" fill="#FFE812"></path>
        <path d="M128,36.7058824 C63.2094118,36.7058824 10.7058824,77.9458824 10.7058824,128.282353 C10.7058824,160.329412 29.0305882,188.726471 56.8470588,205.561176 L45.1764706,246.541176 L89.9011765,217.852941 C101.67451,221.458441 114.104206,223.329412 127.858824,223.329412 C192.508235,223.329412 245.152941,182.089412 245.152941,131.752941 C245.152941,81.4164706 192.649412,36.7058824 128,36.7058824" fill="#381B1B"></path>
    </g>
</svg>
